<?xml version="1.0" encoding="UTF-8"?>
<!DOCTYPE svg PUBLIC "-//W3C//DTD SVG 1.1//EN" "http://www.w3.org/Graphics/SVG/1.1/DTD/svg11.dtd">
<!-- Creator: CorelDRAW 2018 (64-Bit) -->
<svg xmlns="http://www.w3.org/2000/svg" xml:space="preserve" width="1114px" height="684px" version="1.1" style="shape-rendering:geometricPrecision; text-rendering:geometricPrecision; image-rendering:optimizeQuality; fill-rule:evenodd; clip-rule:evenodd"
viewBox="0 0 70.57 43.36"
 xmlns:xlink="http://www.w3.org/1999/xlink">
 <defs>
  <style type="text/css">
   <![CDATA[
    .fil3 {fill:black;fill-rule:nonzero}
    .fil1 {fill:#00ACCD;fill-rule:nonzero}
    .fil0 {fill:#A6CE39;fill-rule:nonzero}
    .fil2 {fill:#FAA619;fill-rule:nonzero}
   ]]>
  </style>
 </defs>
 <g id="Layer_x0020_1">
  <metadata id="CorelCorpID_0Corel-Layer"/>
  <path class="fil0" d="M17.42 37.07c-2.59,0.71 -4.84,1.33 -7.26,1.99 1.99,2.41 3.86,1.69 7.26,-1.99z"/>
  <path class="fil0" d="M4.95 35.09c1.94,2.91 5.49,2.74 9.84,-0.21 -3.31,0.07 -6.48,0.14 -9.84,0.21z"/>
  <path class="fil0" d="M14.38 32.54c-0.02,-0.13 -0.76,-0.41 -1.25,-0.58 -4.1,-0.88 -8.2,-1.78 -12.53,-2.71 0.81,2.05 1.99,3.27 3.79,3.34 2.89,0.13 7.09,-0.01 9.99,-0.05z"/>
  <path class="fil1" d="M14.75 28.32c0.13,-0.15 -0.93,-1.47 -1.07,-1.76 -3.74,-4.89 -7.48,-9.78 -11.41,-14.93 -0.6,2.42 -0.78,4.48 0.79,6.01 3.32,3.21 8.27,7.58 11.69,10.68z"/>
  <path class="fil1" d="M2.49 26.03c3.1,1.21 8.42,2.86 11.59,3.9 -0.04,-0.15 -1.47,-0.92 -1.93,-1.21 -3.98,-2.52 -7.97,-5.05 -12.15,-7.69 0.15,2.62 0.84,4.35 2.49,5z"/>
  <path class="fil1" d="M16.67 25.82c-4.47,-4.62 -6.54,-8.49 -6.54,-8.49 -1.41,-2.36 -2.58,-4.9 -3.55,-7.49 -1.17,-3.09 -0.73,-6.88 0.9,-9.84 1.75,7.95 9.19,25.82 9.19,25.82z"/>
  <path class="fil2" d="M22.38 39.9c-0.93,1.02 -1.76,1.91 -2.73,2.98 2.23,0.31 2.75,-0.29 2.73,-2.98z"/>
  <path class="fil2" d="M14.7 41.62c2.35,1.22 3.01,0.89 4.98,-2.62 -1.62,0.85 -3.24,1.7 -4.98,2.62z"/>
  <path class="fil2" d="M23.22 43.36c2.04,-0.29 2,-1.55 1.87,-2.82 -0.55,0.82 -1.09,1.64 -1.87,2.82z"/>
  <path class="fil3" d="M26.24 28.54l-3.33 0c-0.26,0 -0.44,0.05 -0.56,0.16 -0.11,0.11 -0.17,0.28 -0.17,0.53l0 1.59 3.57 0 0 1.5 -3.57 0 0 3.91 -2.06 0 0 -7.42c0,-0.6 0.19,-1.07 0.56,-1.41 0.37,-0.35 0.87,-0.52 1.49,-0.52 1.98,0 3.37,0.05 4.18,0.15l-0.11 1.51z"/>
  <path class="fil3" d="M35 26.92l0 5.6c0,1.42 -0.28,2.42 -0.82,3.01 -0.54,0.58 -1.48,0.87 -2.81,0.87 -1.41,0 -2.39,-0.29 -2.96,-0.87 -0.58,-0.59 -0.86,-1.59 -0.86,-3.01l0 -5.6 2.05 0 0 5.6c0,0.85 0.12,1.44 0.36,1.75 0.24,0.32 0.67,0.47 1.31,0.47 0.63,0 1.07,-0.15 1.31,-0.47 0.23,-0.31 0.35,-0.9 0.35,-1.75l0 -5.6 2.07 0z"/>
  <polygon class="fil3" points="43.72,28.59 40.94,28.59 40.94,36.23 38.88,36.23 38.88,28.59 36.1,28.59 36.1,26.92 43.72,26.92 "/>
  <path class="fil3" d="M52.29 26.92l0 5.6c0,1.42 -0.28,2.42 -0.82,3.01 -0.55,0.58 -1.48,0.87 -2.81,0.87 -1.41,0 -2.39,-0.29 -2.97,-0.87 -0.57,-0.59 -0.85,-1.59 -0.85,-3.01l0 -5.6 2.05 0 0 5.6c0,0.85 0.12,1.44 0.36,1.75 0.23,0.32 0.67,0.47 1.31,0.47 0.63,0 1.06,-0.15 1.3,-0.47 0.24,-0.31 0.36,-0.9 0.36,-1.75l0 -5.6 2.07 0z"/>
  <path class="fil3" d="M61.43 36.23l-2.17 0 -0.71 -2.85c-0.09,-0.3 -0.2,-0.5 -0.35,-0.61 -0.15,-0.11 -0.36,-0.17 -0.64,-0.17l-1.45 -0.01 0 3.64 -2.02 0 0 -9.31c0.84,-0.08 2.02,-0.12 3.55,-0.12 1.25,0 2.13,0.2 2.66,0.59 0.52,0.4 0.78,1.12 0.78,2.16 0,0.68 -0.14,1.22 -0.41,1.61 -0.28,0.38 -0.73,0.62 -1.37,0.7l0 0.06c0.71,0.17 1.15,0.63 1.32,1.41l0.81 2.9zm-5.32 -5.22l1.49 0c0.54,0 0.91,-0.1 1.1,-0.28 0.2,-0.18 0.3,-0.53 0.3,-1.05 0,-0.51 -0.1,-0.85 -0.29,-1.03 -0.19,-0.18 -0.56,-0.27 -1.11,-0.27l-1.49 0.01 0 2.62z"/>
  <path class="fil3" d="M67.81 33.79l-3.2 0 -0.67 2.44 -2.11 0 2.69 -8.77c0.03,-0.16 0.12,-0.29 0.25,-0.39 0.14,-0.1 0.29,-0.15 0.46,-0.15l1.94 0c0.39,0 0.63,0.18 0.72,0.54l2.68 8.77 -2.09 0 -0.67 -2.44zm-0.45 -1.6l-0.78 -2.84c-0.11,-0.45 -0.17,-0.74 -0.19,-0.88l-0.36 0c-0.02,0.09 -0.05,0.23 -0.1,0.43 -0.04,0.2 -0.08,0.35 -0.1,0.45l-0.79 2.84 2.32 0z"/>
  <path class="fil3" d="M41.89 41.9l-0.28 0.66 -0.13 0 0.8 -1.91 0.07 0 0.8 1.91 -0.14 0 -0.27 -0.66 -0.85 0zm0.42 -1.04c0,0.01 -0.01,0.02 -0.01,0.04 -0.03,0.07 -0.05,0.14 -0.07,0.19l-0.3 0.71 0.76 0 -0.29 -0.71c-0.06,-0.13 -0.09,-0.21 -0.09,-0.23z"/>
  <path class="fil3" d="M45.38 40.83c-0.13,-0.05 -0.26,-0.08 -0.39,-0.08 -0.26,0 -0.39,0.1 -0.39,0.29 0,0.08 0.03,0.16 0.09,0.23 0.06,0.07 0.13,0.13 0.21,0.19 0.09,0.06 0.17,0.11 0.25,0.17 0.09,0.06 0.16,0.13 0.22,0.21 0.05,0.08 0.08,0.17 0.08,0.27 0,0.16 -0.05,0.28 -0.16,0.36 -0.11,0.08 -0.26,0.13 -0.45,0.13 -0.19,0 -0.35,-0.05 -0.48,-0.15l0.06 -0.1c0.13,0.09 0.27,0.13 0.42,0.13 0.15,0 0.27,-0.03 0.35,-0.09 0.08,-0.06 0.12,-0.15 0.12,-0.27 0,-0.08 -0.03,-0.15 -0.09,-0.22 -0.05,-0.08 -0.12,-0.14 -0.21,-0.2 -0.08,-0.06 -0.16,-0.11 -0.25,-0.17 -0.08,-0.06 -0.15,-0.14 -0.21,-0.22 -0.06,-0.08 -0.09,-0.17 -0.09,-0.27 0,-0.12 0.05,-0.22 0.14,-0.3 0.09,-0.07 0.22,-0.11 0.38,-0.11 0.16,0 0.3,0.04 0.44,0.1l-0.04 0.1z"/>
  <polygon class="fil3" points="47.01,42.56 47.01,40.67 47.14,40.67 47.14,42.56 "/>
  <path class="fil3" d="M48.95 41.9l-0.27 0.66 -0.14 0 0.8 -1.91 0.07 0 0.81 1.91 -0.15 0 -0.27 -0.66 -0.85 0zm0.42 -1.04c0,0.01 -0.01,0.02 -0.01,0.04 -0.03,0.07 -0.05,0.14 -0.07,0.19l-0.3 0.71 0.76 0 -0.29 -0.71c-0.06,-0.13 -0.09,-0.21 -0.09,-0.23z"/>
 </g>
</svg>
