<?xml version="1.0" encoding="UTF-8"?>
<!DOCTYPE svg PUBLIC "-//W3C//DTD SVG 1.1//EN" "http://www.w3.org/Graphics/SVG/1.1/DTD/svg11.dtd">
<!-- Creator: CorelDRAW 2018 (64-Bit) -->
<svg xmlns="http://www.w3.org/2000/svg" xml:space="preserve" width="202px" height="270px" version="1.1" style="shape-rendering:geometricPrecision; text-rendering:geometricPrecision; image-rendering:optimizeQuality; fill-rule:evenodd; clip-rule:evenodd"
viewBox="0 0 3.4 4.54"
 xmlns:xlink="http://www.w3.org/1999/xlink">
 <defs>
  <style type="text/css">
   <![CDATA[
    .fil0 {fill:#00B9FF}
   ]]>
  </style>
 </defs>
 <g id="Layer_x0020_1">
  <metadata id="CorelCorpID_0Corel-Layer"/>
  <g id="_2249196987360">
   <g>
    <g>
     <path class="fil0" d="M3.39 4.38l-0.6 -1.27c-0.01,-0.02 -0.03,-0.04 -0.05,-0.05l-0.3 -0.14 0.51 -0.86c0.01,0 0.01,0 0.01,-0.01 0.1,-0.2 0.15,-0.41 0.15,-0.64 0,-0.38 -0.15,-0.74 -0.42,-1 -0.27,-0.27 -0.63,-0.42 -1.01,-0.41 -0.37,0.01 -0.72,0.15 -0.98,0.42 -0.26,0.26 -0.41,0.61 -0.41,0.98 0,0.23 0.05,0.45 0.15,0.65 0.01,0.01 0.01,0.01 0.01,0.01l0.51 0.86 -0.3 0.14c-0.02,0.01 -0.04,0.03 -0.05,0.05l-0.6 1.27c-0.02,0.04 -0.01,0.09 0.02,0.12 0.03,0.04 0.08,0.05 0.13,0.03l0.75 -0.34 0.75 0.34c0.02,0.01 0.06,0.01 0.09,0l0.75 -0.34 0.75 0.34c0.01,0 0.03,0.01 0.04,0.01 0.03,0 0.06,-0.02 0.08,-0.04 0.03,-0.03 0.04,-0.08 0.02,-0.12zm-2.75 -2.43c-0.08,-0.17 -0.13,-0.35 -0.13,-0.55 0.01,-0.64 0.53,-1.17 1.17,-1.18 0.32,0 0.63,0.12 0.85,0.35 0.23,0.22 0.36,0.52 0.36,0.84 0,0.19 -0.04,0.37 -0.13,0.54l-0.96 1.61c-0.03,0.05 -0.08,0.06 -0.1,0.06 -0.02,0 -0.07,-0.01 -0.09,-0.06l-0.97 -1.61zm1.9 2.02c-0.03,-0.01 -0.06,-0.01 -0.09,0l-0.75 0.33 -0.75 -0.33c-0.03,-0.01 -0.06,-0.01 -0.09,0l-0.52 0.23 0.45 -0.96 0.29 -0.12 0.33 0.56c0.06,0.1 0.17,0.16 0.29,0.16 0.12,0 0.23,-0.06 0.29,-0.16l0.33 -0.56 0.29 0.12 0.45 0.96 -0.52 -0.23z"/>
    </g>
   </g>
   <g>
    <g>
     <path class="fil0" d="M1.7 0.9c-0.28,0 -0.51,0.23 -0.51,0.51 0,0.28 0.23,0.51 0.51,0.51 0.28,0 0.51,-0.23 0.51,-0.51 0,-0.28 -0.23,-0.51 -0.51,-0.51zm0 0.8c-0.16,0 -0.29,-0.13 -0.29,-0.29 0,-0.16 0.13,-0.29 0.29,-0.29 0.16,0 0.29,0.13 0.29,0.29 0,0.16 -0.13,0.29 -0.29,0.29z"/>
    </g>
   </g>
   <g>
   </g>
   <g>
   </g>
   <g>
   </g>
   <g>
   </g>
   <g>
   </g>
   <g>
   </g>
   <g>
   </g>
   <g>
   </g>
   <g>
   </g>
   <g>
   </g>
   <g>
   </g>
   <g>
   </g>
   <g>
   </g>
   <g>
   </g>
   <g>
   </g>
  </g>
 </g>
</svg>
