<?xml version="1.0" encoding="UTF-8"?>
<!DOCTYPE svg PUBLIC "-//W3C//DTD SVG 1.1//EN" "http://www.w3.org/Graphics/SVG/1.1/DTD/svg11.dtd">
<!-- Creator: CorelDRAW 2018 (64-Bit) -->
<svg xmlns="http://www.w3.org/2000/svg" xml:space="preserve" width="252px" height="252px" version="1.1" style="shape-rendering:geometricPrecision; text-rendering:geometricPrecision; image-rendering:optimizeQuality; fill-rule:evenodd; clip-rule:evenodd"
viewBox="0 0 5.28 5.29"
 xmlns:xlink="http://www.w3.org/1999/xlink">
 <defs>
  <style type="text/css">
   <![CDATA[
    .fil0 {fill:#00B9FF}
   ]]>
  </style>
 </defs>
 <g id="Layer_x0020_1">
  <metadata id="CorelCorpID_0Corel-Layer"/>
  <g id="_2249050141408">
   <g>
    <g>
     <path class="fil0" d="M4.18 3.28c-0.11,-0.12 -0.24,-0.18 -0.38,-0.18 -0.14,0 -0.27,0.06 -0.38,0.18l-0.36 0.35c-0.02,-0.02 -0.05,-0.03 -0.08,-0.05 -0.04,-0.02 -0.08,-0.04 -0.11,-0.06 -0.33,-0.21 -0.63,-0.48 -0.92,-0.83 -0.14,-0.18 -0.23,-0.33 -0.3,-0.48 0.09,-0.08 0.17,-0.17 0.26,-0.25 0.03,-0.04 0.06,-0.07 0.09,-0.1 0.23,-0.23 0.23,-0.54 0,-0.77l-0.3 -0.31c-0.04,-0.03 -0.07,-0.07 -0.11,-0.1 -0.07,-0.07 -0.14,-0.14 -0.21,-0.21 -0.11,-0.11 -0.24,-0.16 -0.37,-0.16 -0.14,0 -0.27,0.05 -0.38,0.16 0,0 0,0 0,0l-0.38 0.39c-0.15,0.14 -0.23,0.31 -0.25,0.51 -0.02,0.33 0.07,0.63 0.15,0.83 0.18,0.49 0.45,0.94 0.85,1.43 0.49,0.58 1.08,1.04 1.75,1.37 0.26,0.12 0.6,0.26 0.98,0.29 0.03,0 0.05,0 0.07,0 0.26,0 0.48,-0.09 0.65,-0.28 0,0 0,0 0,0 0.06,-0.07 0.13,-0.14 0.2,-0.21 0.04,-0.04 0.09,-0.09 0.14,-0.14 0.11,-0.11 0.17,-0.25 0.17,-0.39 0,-0.13 -0.06,-0.27 -0.17,-0.38l-0.61 -0.61zm0.4 1.17c-0.01,0 -0.01,0 0,0 -0.05,0.05 -0.09,0.09 -0.14,0.14 -0.07,0.07 -0.15,0.14 -0.22,0.22 -0.11,0.12 -0.24,0.18 -0.42,0.18 -0.01,0 -0.03,0 -0.05,0 -0.33,-0.02 -0.64,-0.15 -0.87,-0.26 -0.63,-0.31 -1.18,-0.74 -1.65,-1.29 -0.38,-0.46 -0.63,-0.89 -0.8,-1.34 -0.1,-0.28 -0.14,-0.5 -0.12,-0.7 0.01,-0.13 0.06,-0.24 0.15,-0.33l0.38 -0.38c0.06,-0.05 0.11,-0.08 0.17,-0.08 0.07,0 0.13,0.04 0.16,0.08 0,0 0.01,0 0.01,0 0.06,0.06 0.13,0.13 0.2,0.2 0.03,0.03 0.07,0.07 0.1,0.11l0.31 0.3c0.12,0.12 0.12,0.23 0,0.35 -0.03,0.03 -0.07,0.06 -0.1,0.09 -0.09,0.1 -0.18,0.19 -0.28,0.28 0,0 0,0 0,0 -0.1,0.1 -0.08,0.19 -0.06,0.25 0,0.01 0,0.01 0,0.01 0.08,0.2 0.19,0.38 0.36,0.59l0 0c0.31,0.38 0.64,0.68 0.99,0.91 0.05,0.03 0.1,0.05 0.14,0.07 0.04,0.02 0.08,0.04 0.11,0.06 0.01,0 0.01,0.01 0.02,0.01 0.03,0.02 0.07,0.03 0.11,0.03 0.09,0 0.15,-0.06 0.17,-0.08l0.38 -0.38c0.04,-0.04 0.1,-0.09 0.17,-0.09 0.07,0 0.12,0.05 0.16,0.08 0,0.01 0,0.01 0,0.01l0.61 0.61c0.12,0.12 0.12,0.23 0.01,0.35z"/>
     <path class="fil0" d="M2.85 1.26c0.3,0.05 0.56,0.19 0.77,0.4 0.22,0.21 0.35,0.48 0.4,0.77 0.02,0.07 0.08,0.12 0.15,0.12 0.01,0 0.02,0 0.03,0 0.08,-0.01 0.14,-0.09 0.12,-0.17 -0.06,-0.36 -0.23,-0.68 -0.48,-0.94 -0.26,-0.25 -0.58,-0.42 -0.93,-0.48 -0.09,-0.01 -0.16,0.04 -0.18,0.12 -0.01,0.09 0.04,0.16 0.12,0.18z"/>
     <path class="fil0" d="M5.28 2.33c-0.1,-0.58 -0.38,-1.11 -0.8,-1.53 -0.42,-0.42 -0.95,-0.7 -1.53,-0.8 -0.08,-0.01 -0.16,0.04 -0.17,0.13 -0.02,0.08 0.04,0.15 0.12,0.17 0.52,0.09 0.99,0.33 1.37,0.71 0.38,0.38 0.62,0.85 0.71,1.37 0.01,0.08 0.08,0.13 0.15,0.13 0.01,0 0.02,0 0.03,-0.01 0.08,-0.01 0.13,-0.09 0.12,-0.17z"/>
    </g>
   </g>
   <g>
   </g>
   <g>
   </g>
   <g>
   </g>
   <g>
   </g>
   <g>
   </g>
   <g>
   </g>
   <g>
   </g>
   <g>
   </g>
   <g>
   </g>
   <g>
   </g>
   <g>
   </g>
   <g>
   </g>
   <g>
   </g>
   <g>
   </g>
   <g>
   </g>
  </g>
 </g>
</svg>
