<?xml version="1.0" encoding="UTF-8"?>
<!DOCTYPE svg PUBLIC "-//W3C//DTD SVG 1.1//EN" "http://www.w3.org/Graphics/SVG/1.1/DTD/svg11.dtd">
<!-- Creator: CorelDRAW 2018 (64-Bit) -->
<svg xmlns="http://www.w3.org/2000/svg" xml:space="preserve" width="251px" height="235px" version="1.1" style="shape-rendering:geometricPrecision; text-rendering:geometricPrecision; image-rendering:optimizeQuality; fill-rule:evenodd; clip-rule:evenodd"
viewBox="0 0 2.98 2.78"
 xmlns:xlink="http://www.w3.org/1999/xlink">
 <defs>
  <style type="text/css">
   <![CDATA[
    .fil0 {fill:#00B9FF}
   ]]>
  </style>
 </defs>
 <g id="Layer_x0020_1">
  <metadata id="CorelCorpID_0Corel-Layer"/>
  <g id="_2249193187968">
   <g>
    <g>
     <path class="fil0" d="M2.98 1.05c0,0 0,-0.01 -0.01,-0.01 0,-0.02 -0.01,-0.04 -0.03,-0.05l-0.42 -0.29 0 -0.32c0,-0.04 -0.04,-0.08 -0.08,-0.08l-0.49 0 -0.42 -0.29c-0.02,-0.01 -0.06,-0.01 -0.08,0l-0.42 0.29 -0.49 0c-0.04,0 -0.08,0.04 -0.08,0.08l0 0.31 -0.43 0.3c-0.02,0.01 -0.03,0.04 -0.03,0.06 0,0 0,0 0,0l0 1.66c0,0.02 0.01,0.04 0.02,0.05 0.02,0.02 0.04,0.02 0.06,0.02 0,0 0,0 0,0l2.82 0c0.04,0 0.08,-0.03 0.08,-0.08l0 -1.65zm-0.46 -0.17l0.24 0.17 -0.24 0.17 0 -0.34zm-1.03 -0.71l0.19 0.13 -0.39 0 0.2 -0.13zm-0.88 0.29l1.75 0 0 0.87 -0.58 0.41 -0.24 -0.19c0,0 0,0 0,0 -0.03,-0.02 -0.07,-0.02 -0.1,0l-0.24 0.19 -0.59 -0.41 0 -0.87zm-0.15 0.42l0 0.35 -0.25 -0.18 0.25 -0.17zm-0.31 0.32l0.93 0.64 -0.93 0.71 0 -1.35zm0.15 1.43l1.19 -0.92 1.19 0.92 -2.38 0zm1.6 -0.79l0.92 -0.64 0.01 1.35 -0.93 -0.71z"/>
    </g>
   </g>
   <g>
    <g>
     <path class="fil0" d="M2.01 0.76l-1.04 0c-0.04,0 -0.07,0.04 -0.07,0.08 0,0.04 0.03,0.07 0.07,0.07l1.04 0c0.04,0 0.07,-0.03 0.07,-0.07 0,-0.04 -0.03,-0.08 -0.07,-0.08z"/>
    </g>
   </g>
   <g>
    <g>
     <path class="fil0" d="M2.01 1.16l-1.04 0c-0.04,0 -0.07,0.03 -0.07,0.07 0,0.05 0.03,0.08 0.07,0.08l1.04 0c0.04,0 0.07,-0.03 0.07,-0.08 0,-0.04 -0.03,-0.07 -0.07,-0.07z"/>
    </g>
   </g>
   <g>
   </g>
   <g>
   </g>
   <g>
   </g>
   <g>
   </g>
   <g>
   </g>
   <g>
   </g>
   <g>
   </g>
   <g>
   </g>
   <g>
   </g>
   <g>
   </g>
   <g>
   </g>
   <g>
   </g>
   <g>
   </g>
   <g>
   </g>
   <g>
   </g>
  </g>
 </g>
</svg>
