<?xml version="1.0" encoding="UTF-8"?>
<!DOCTYPE svg PUBLIC "-//W3C//DTD SVG 1.1//EN" "http://www.w3.org/Graphics/SVG/1.1/DTD/svg11.dtd">
<!-- Creator: CorelDRAW 2018 (64-Bit) -->
<svg xmlns="http://www.w3.org/2000/svg" xml:space="preserve" width="20px" height="20px" version="1.1" style="shape-rendering:geometricPrecision; text-rendering:geometricPrecision; image-rendering:optimizeQuality; fill-rule:evenodd; clip-rule:evenodd"
viewBox="0 0 22.47 22.5"
 xmlns:xlink="http://www.w3.org/1999/xlink">
 <defs>
  <style type="text/css">
   <![CDATA[
    .fil0 {fill:#FEFEFE}
   ]]>
  </style>
 </defs>
 <g id="Layer_x0020_1">
  <metadata id="CorelCorpID_0Corel-Layer"/>
  <g id="_2249752755232">
   <g id="_2249050141408">
    <g>
     <g>
      <path class="fil0" d="M17.79 13.95c-0.47,-0.51 -1.02,-0.76 -1.62,-0.76 -0.59,0 -1.15,0.25 -1.61,0.76l-1.54 1.49c-0.08,-0.08 -0.21,-0.13 -0.34,-0.21 -0.17,-0.09 -0.34,-0.17 -0.46,-0.26 -1.41,-0.89 -2.68,-2.04 -3.92,-3.53 -0.59,-0.76 -0.97,-1.4 -1.27,-2.04 0.38,-0.34 0.72,-0.72 1.1,-1.06 0.13,-0.17 0.26,-0.3 0.39,-0.42 0.98,-0.98 0.98,-2.3 0,-3.28l-1.28 -1.32c-0.17,-0.13 -0.3,-0.3 -0.47,-0.42 -0.29,-0.3 -0.59,-0.6 -0.89,-0.9 -0.47,-0.46 -1.02,-0.68 -1.57,-0.68 -0.6,0 -1.15,0.22 -1.62,0.68 0,0 0,0 0,0l-1.61 1.66c-0.64,0.6 -0.98,1.32 -1.07,2.17 -0.08,1.4 0.3,2.68 0.64,3.53 0.77,2.08 1.91,4 3.61,6.08 2.09,2.47 4.6,4.43 7.45,5.83 1.1,0.51 2.55,1.1 4.16,1.23 0.13,0 0.22,0 0.3,0 1.11,0 2.04,-0.38 2.77,-1.19 0,0 0,0 0,0 0.25,-0.3 0.55,-0.59 0.85,-0.89 0.17,-0.17 0.38,-0.38 0.59,-0.6 0.47,-0.47 0.72,-1.06 0.72,-1.66 0,-0.55 -0.25,-1.14 -0.72,-1.61l-2.59 -2.6 0 0zm1.7 4.98c-0.04,0 -0.04,0 0,0 -0.21,0.21 -0.38,0.38 -0.6,0.59 -0.29,0.3 -0.63,0.6 -0.93,0.94 -0.47,0.51 -1.02,0.77 -1.79,0.77 -0.04,0 -0.13,0 -0.21,0 -1.4,-0.09 -2.72,-0.64 -3.7,-1.11 -2.68,-1.32 -5.02,-3.15 -7.02,-5.49 -1.61,-1.95 -2.68,-3.78 -3.4,-5.69 -0.42,-1.19 -0.59,-2.13 -0.51,-2.98 0.04,-0.55 0.26,-1.02 0.64,-1.4l1.61 -1.62c0.26,-0.21 0.47,-0.34 0.73,-0.34 0.29,0 0.55,0.17 0.68,0.34 0,0 0.04,0 0.04,0 0.26,0.25 0.55,0.55 0.85,0.85 0.13,0.13 0.3,0.3 0.43,0.47l1.31 1.27c0.51,0.51 0.51,0.98 0,1.49 -0.12,0.13 -0.29,0.26 -0.42,0.38 -0.38,0.43 -0.77,0.81 -1.19,1.2 0,0 0,0 0,0 -0.43,0.42 -0.34,0.8 -0.26,1.06 0,0.04 0,0.04 0,0.04 0.34,0.85 0.81,1.62 1.53,2.51l0 0c1.32,1.62 2.73,2.89 4.21,3.87 0.22,0.13 0.43,0.21 0.6,0.3 0.17,0.08 0.34,0.17 0.47,0.25 0.04,0 0.04,0.05 0.08,0.05 0.13,0.08 0.3,0.12 0.47,0.12 0.38,0 0.64,-0.25 0.72,-0.34l1.62 -1.61c0.17,-0.17 0.42,-0.39 0.72,-0.39 0.3,0 0.51,0.22 0.68,0.34 0,0.05 0,0.05 0,0.05l2.6 2.59c0.51,0.51 0.51,0.98 0.04,1.49l0 0z"/>
      <path class="fil0" d="M12.13 5.36c1.28,0.22 2.38,0.81 3.28,1.7 0.93,0.9 1.48,2.05 1.7,3.28 0.08,0.3 0.34,0.51 0.64,0.51 0.04,0 0.08,0 0.12,0 0.34,-0.04 0.6,-0.38 0.51,-0.72 -0.25,-1.53 -0.97,-2.9 -2.04,-4 -1.1,-1.06 -2.46,-1.79 -3.95,-2.04 -0.39,-0.04 -0.68,0.17 -0.77,0.51 -0.04,0.38 0.17,0.68 0.51,0.76l0 0z"/>
      <path class="fil0" d="M22.47 9.91c-0.43,-2.46 -1.62,-4.72 -3.41,-6.5 -1.78,-1.79 -4.04,-2.98 -6.5,-3.4 -0.34,-0.05 -0.68,0.17 -0.73,0.55 -0.08,0.34 0.17,0.64 0.51,0.72 2.22,0.38 4.21,1.4 5.83,3.02 1.62,1.62 2.64,3.62 3.02,5.83 0.04,0.34 0.34,0.55 0.64,0.55 0.04,0 0.08,0 0.13,-0.04 0.34,-0.05 0.55,-0.39 0.51,-0.73l0 0z"/>
     </g>
    </g>
    <g>
    </g>
    <g>
    </g>
    <g>
    </g>
    <g>
    </g>
    <g>
    </g>
    <g>
    </g>
    <g>
    </g>
    <g>
    </g>
    <g>
    </g>
    <g>
    </g>
    <g>
    </g>
    <g>
    </g>
    <g>
    </g>
    <g>
    </g>
    <g>
    </g>
   </g>
  </g>
 </g>
</svg>
