<?xml version="1.0" encoding="UTF-8"?>
<!DOCTYPE svg PUBLIC "-//W3C//DTD SVG 1.1//EN" "http://www.w3.org/Graphics/SVG/1.1/DTD/svg11.dtd">
<!-- Creator: CorelDRAW 2018 (64-Bit) -->
<svg xmlns="http://www.w3.org/2000/svg" xml:space="preserve" width="60px" height="60px" version="1.1" style="shape-rendering:geometricPrecision; text-rendering:geometricPrecision; image-rendering:optimizeQuality; fill-rule:evenodd; clip-rule:evenodd"
viewBox="0 0 546.75 546.8"
 xmlns:xlink="http://www.w3.org/1999/xlink">
 <defs>
  <style type="text/css">
   <![CDATA[
    .fil0 {fill:#00B9FF}
   ]]>
  </style>
 </defs>
 <g id="Layer_x0020_1">
  <metadata id="CorelCorpID_0Corel-Layer"/>
  <g id="_2250445098512">
   <g>
    <g>
     <path class="fil0" d="M333.55 388.77c-0.46,-7.64 -3.81,-14.95 -9.43,-20.57l-40.57 -40.57c6.56,-2.07 12.47,-5.64 17.29,-10.46l1.03 -1.03c17.87,-17.88 16.44,-48.4 -3.2,-68.04 -9.34,-9.34 -21.43,-14.9 -34.04,-15.67 -13.09,-0.79 -25.16,3.64 -33.99,12.48l-1.04 1.03c-4.81,4.82 -8.38,10.73 -10.46,17.29l-40.57 -40.57c-11.95,-11.96 -30.68,-12.68 -41.75,-1.61l-36.77 36.77c-4.5,4.5 -6.37,11.04 -5.01,17.49 1.49,7.02 6.38,12.76 13.1,15.35 4.24,1.64 8.08,4.16 11.42,7.5l1.16 1.17c5.65,5.65 9.01,12.83 9.46,20.22 0.41,6.9 -1.81,13.16 -6.26,17.61 -4.45,4.45 -10.71,6.68 -17.61,6.25 -7.39,-0.44 -14.57,-3.8 -20.22,-9.45l-1.16 -1.17c-3.34,-3.34 -5.87,-7.18 -7.51,-11.42 -2.59,-6.71 -8.33,-11.61 -15.35,-13.09 -6.45,-1.37 -12.99,0.51 -17.49,5l-36.73 36.73c-11.07,11.07 -10.35,29.8 1.61,41.76l40.57 40.57c-6.55,2.07 -12.47,5.64 -17.29,10.46l-1.03 1.03c-17.88,17.88 -16.44,48.4 3.2,68.04 10.42,10.42 23.91,15.72 36.95,15.72 11.52,0 22.7,-4.14 31.08,-12.53l1.03 -1.03c4.82,-4.82 8.39,-10.73 10.46,-17.29l40.57 40.57c5.63,5.63 12.93,8.97 20.57,9.44 0.59,0.03 1.17,0.05 1.75,0.05 7.38,0 14.38,-2.82 19.44,-7.88l34.97 -34.97c2.72,6.61 6.72,12.57 11.9,17.76l1.16 1.16c19.64,19.64 50.16,21.07 68.04,3.2 17.88,-17.88 16.44,-48.4 -3.2,-68.04l-1.16 -1.16c-5.18,-5.18 -11.15,-9.18 -17.76,-11.9l35.02 -35.01c5.45,-5.46 8.3,-13.18 7.82,-21.19zm-22.93 6.08l-36.76 36.77c-4.5,4.5 -6.37,11.04 -5.01,17.5 1.48,7.01 6.38,12.75 13.09,15.35 4.24,1.64 8.09,4.16 11.42,7.5l1.17 1.16c11.31,11.32 12.75,28.28 3.2,37.83 -9.55,9.55 -26.52,8.12 -37.83,-3.19l-1.17 -1.17c-3.34,-3.34 -5.86,-7.18 -7.5,-11.42 -2.59,-6.71 -8.33,-11.61 -15.35,-13.09 -6.46,-1.37 -13,0.5 -17.49,5l-36.73 36.73c-1.48,1.48 -3.42,1.7 -4.8,1.61 -2.39,-0.15 -4.85,-1.32 -6.75,-3.22l-16.27 -16.27 35.44 -35.44c4.17,-4.17 4.17,-10.94 0,-15.11 -4.17,-4.17 -10.94,-4.17 -15.11,0l-35.44 35.44 -11.06 -11.06c-4.04,-4.04 -9.37,-6.23 -14.74,-6.23 -1.85,0 -3.72,0.26 -5.53,0.8 -6.57,1.95 -11.34,7.11 -12.77,13.83 -0.9,4.21 -2.83,7.83 -5.76,10.76l-1.03 1.03c-9.55,9.55 -26.52,8.11 -37.83,-3.2 -11.31,-11.31 -12.75,-28.28 -3.2,-37.83l1.03 -1.03c2.93,-2.92 6.55,-4.86 10.77,-5.76 6.71,-1.43 11.88,-6.2 13.82,-12.77 2.09,-7.06 0.01,-14.83 -5.43,-20.27l-42.44 -42.44c-1.9,-1.9 -3.07,-4.36 -3.21,-6.75 -0.09,-1.37 0.13,-3.32 1.6,-4.8l34.98 -34.97c2.71,6.61 6.71,12.58 11.89,17.76l1.17 1.16c19.64,19.64 50.16,21.07 68.03,3.2 17.88,-17.88 16.45,-48.4 -3.19,-68.04l-1.17 -1.16c-5.18,-5.18 -11.15,-9.18 -17.75,-11.9l35.01 -35.01c2.7,-2.7 7.98,-1.96 11.55,1.61l42.44 42.43c5.44,5.45 13.2,7.53 20.27,5.44 6.56,-1.95 11.34,-7.12 12.77,-13.83 0.89,-4.21 2.83,-7.83 5.76,-10.76l1.03 -1.03c4.45,-4.45 10.7,-6.67 17.61,-6.26 7.39,0.45 14.57,3.8 20.22,9.45 11.31,11.32 12.74,28.29 3.2,37.83l-1.04 1.04c-2.92,2.92 -6.54,4.86 -10.76,5.76 -6.71,1.42 -11.88,6.2 -13.82,12.76 -2.09,7.07 -0.01,14.84 5.43,20.28l42.44 42.43c1.89,1.9 3.07,4.36 3.21,6.75 0.08,1.38 -0.13,3.33 -1.61,4.8z"/>
    </g>
   </g>
   <g>
    <g>
     <path class="fil0" d="M216.67 428c-1.98,-1.99 -4.74,-3.13 -7.55,-3.13 -2.81,0 -5.56,1.14 -7.55,3.13 -1.98,1.98 -3.13,4.74 -3.13,7.55 0,2.81 1.15,5.56 3.13,7.55 1.99,1.99 4.73,3.13 7.55,3.13 2.81,0 5.57,-1.14 7.55,-3.13 1.99,-1.99 3.13,-4.74 3.13,-7.55 0,-2.81 -1.14,-5.57 -3.13,-7.55z"/>
    </g>
   </g>
   <g>
    <g>
     <path class="fil0" d="M443.46 135.63c-1.98,-1.99 -4.74,-3.13 -7.55,-3.13 -2.81,0 -5.56,1.14 -7.55,3.13 -1.99,1.98 -3.13,4.74 -3.13,7.55 0,2.81 1.14,5.56 3.13,7.55 1.99,1.98 4.74,3.13 7.55,3.13 2.81,0 5.57,-1.15 7.55,-3.13 1.99,-1.99 3.13,-4.74 3.13,-7.55 0,-2.81 -1.14,-5.57 -3.13,-7.55z"/>
    </g>
   </g>
   <g>
    <g>
     <path class="fil0" d="M523.44 245.45c-5.8,-5.8 -12.82,-10.24 -20.37,-12.89l35.8 -35.8c5.46,-5.46 8.31,-13.18 7.83,-21.19 -0.46,-7.64 -3.81,-14.94 -9.44,-20.57l-39.76 -39.77c5.6,-2.14 10.7,-5.43 14.91,-9.64l1.03 -1.03c17.87,-17.87 16.44,-48.39 -3.2,-68.03 -19.64,-19.64 -50.16,-21.08 -68.03,-3.2l-1.04 1.03c-4.2,4.21 -7.49,9.31 -9.63,14.92l-39.82 -39.82c-11.96,-11.95 -30.69,-12.68 -41.76,-1.61l-35.8 35.8c-2.65,-7.54 -7.09,-14.56 -12.89,-20.36l-1.16 -1.17c-19.64,-19.64 -50.16,-21.07 -68.04,-3.2 -17.87,17.88 -16.44,48.4 3.2,68.04l1.16 1.17c5.8,5.8 12.82,10.24 20.37,12.88l-35.8 35.81c-11.07,11.07 -10.35,29.8 1.61,41.76l42.47 42.44c5.45,5.44 13.22,7.52 20.28,5.43 6.56,-1.94 11.34,-7.11 12.77,-13.83 0.89,-4.21 2.83,-7.83 5.76,-10.76l1.03 -1.03c4.45,-4.45 10.72,-6.68 17.61,-6.26 7.39,0.45 14.57,3.81 20.22,9.46 5.65,5.65 9.01,12.83 9.45,20.22 0.42,6.9 -1.8,13.16 -6.25,17.61l-1.04 1.03c-2.92,2.93 -6.54,4.87 -10.76,5.76 -6.71,1.43 -11.88,6.2 -13.82,12.77 -2.09,7.06 -0.01,14.83 5.43,20.27l42.39 42.43c6.28,6.28 14.43,9.46 22.36,9.46 7.16,0 14.15,-2.6 19.4,-7.85l35.8 -35.8c2.65,7.54 7.09,14.56 12.89,20.36l1.17 1.17c19.64,19.64 50.16,21.07 68.03,3.2 17.88,-17.88 16.45,-48.4 -3.19,-68.04l-1.17 -1.17zm-10.74 54.1c-9.55,9.55 -26.52,8.11 -37.83,-3.2l-1.17 -1.16c-3.72,-3.72 -6.51,-8.22 -8.06,-13.01 -2.26,-6.95 -8.08,-12.33 -15.2,-14.04 -6.64,-1.6 -13.38,0.23 -18.03,4.88l-37.61 37.6c-1.47,1.48 -3.42,1.69 -4.79,1.61 -2.39,-0.15 -4.85,-1.32 -6.75,-3.22l-40.53 -40.56c6.55,-2.07 12.47,-5.64 17.28,-10.46l1.04 -1.03c8.83,-8.84 13.26,-20.91 12.47,-34 -0.76,-12.61 -6.33,-24.7 -15.67,-34.04 -9.34,-9.34 -21.43,-14.91 -34.04,-15.67 -13.09,-0.78 -25.16,3.64 -33.99,12.47l-1.04 1.04c-4.81,4.82 -8.38,10.73 -10.46,17.29l-40.61 -40.58c-1.9,-1.9 -3.07,-4.36 -3.21,-6.75 -0.09,-1.38 0.13,-3.32 1.6,-4.8l37.61 -37.6c4.65,-4.66 6.47,-11.4 4.88,-18.04 -1.71,-7.12 -7.09,-12.94 -14.05,-15.2 -4.78,-1.55 -9.28,-4.34 -13,-8.06l-1.17 -1.17c-11.31,-11.31 -12.74,-28.28 -3.19,-37.82 9.54,-9.55 26.51,-8.12 37.82,3.19l1.17 1.17c3.72,3.72 6.51,8.21 8.06,13 2.26,6.96 8.09,12.34 15.2,14.05 6.64,1.59 13.38,-0.24 18.04,-4.89l37.6 -37.6c2.69,-2.69 7.98,-1.96 11.55,1.61l41.49 41.5c5.26,5.26 12.81,7.4 19.7,5.59 6.4,-1.68 11.28,-6.48 13.05,-12.83 1.01,-3.63 2.83,-6.77 5.42,-9.36l1.03 -1.03c9.55,-9.55 26.52,-8.11 37.83,3.2 11.31,11.31 12.74,28.28 3.19,37.83l-1.03 1.03c-2.58,2.58 -5.73,4.41 -9.35,5.42 -6.36,1.77 -11.15,6.65 -12.83,13.04 -1.81,6.9 0.33,14.44 5.59,19.71l41.45 41.44c1.9,1.9 3.07,4.37 3.22,6.76 0.08,1.37 -0.13,3.32 -1.61,4.79l-17.14 17.14 -35.39 -35.39c-4.17,-4.17 -10.93,-4.17 -15.11,0 -4.17,4.17 -4.17,10.93 0,15.1l35.4 35.4 -5.36 5.36c-4.65,4.65 -6.48,11.39 -4.89,18.03 1.71,7.12 7.09,12.94 14.05,15.2 4.79,1.56 9.28,4.34 13,8.06l1.17 1.17c11.31,11.31 12.75,28.28 3.2,37.83z"/>
    </g>
   </g>
   <g>
   </g>
   <g>
   </g>
   <g>
   </g>
   <g>
   </g>
   <g>
   </g>
   <g>
   </g>
   <g>
   </g>
   <g>
   </g>
   <g>
   </g>
   <g>
   </g>
   <g>
   </g>
   <g>
   </g>
   <g>
   </g>
   <g>
   </g>
   <g>
   </g>
  </g>
 </g>
</svg>
