<?xml version="1.0" encoding="UTF-8"?>
<!DOCTYPE svg PUBLIC "-//W3C//DTD SVG 1.1//EN" "http://www.w3.org/Graphics/SVG/1.1/DTD/svg11.dtd">
<!-- Creator: CorelDRAW 2018 (64-Bit) -->
<svg xmlns="http://www.w3.org/2000/svg" xml:space="preserve" width="60px" height="60px" version="1.1" style="shape-rendering:geometricPrecision; text-rendering:geometricPrecision; image-rendering:optimizeQuality; fill-rule:evenodd; clip-rule:evenodd"
viewBox="0 0 2083.29 1985.64"
 xmlns:xlink="http://www.w3.org/1999/xlink">
 <defs>
  <style type="text/css">
   <![CDATA[
    .fil0 {fill:#00B9FF}
   ]]>
  </style>
 </defs>
 <g id="Layer_x0020_1">
  <metadata id="CorelCorpID_0Corel-Layer"/>
  <g id="_2250126607776">
   <g>
    <g>
     <path class="fil0" d="M1805.33 277.96c-179.26,-179.24 -417.58,-277.96 -671.08,-277.96 -22.47,0 -40.69,18.22 -40.69,40.69l0 908.35c0,10.79 4.29,21.14 11.92,28.77l642.3 642.29c7.94,7.95 18.36,11.92 28.77,11.92 10.41,0 20.83,-3.97 28.77,-11.92 179.25,-179.25 277.97,-417.57 277.97,-671.06 0,-253.5 -98.72,-491.82 -277.96,-671.08zm-630.39 -195.64c73.2,3.4 144.03,15.94 211.44,36.44l-211.44 211.44 0 -247.88zm0 362.81c0.55,-0.49 1.11,-0.95 1.63,-1.48l294.27 -294.26c42.21,17.83 82.72,38.89 121.22,62.89l-417.12 417.12 0 -184.27zm0 487.05l0 -187.69 485.14 -485.14c34.61,26.45 67.18,55.43 97.43,86.69l-376.97 376.97c-15.89,15.89 -15.89,41.65 0,57.54 7.95,7.95 18.36,11.92 28.77,11.92 10.42,0 20.83,-3.97 28.77,-11.92l373.34 -373.34c27.59,34.41 52.6,70.96 74.77,109.35l-563.43 563.43 -147.82 -147.81zm205.36 205.36l544.92 -544.93c19.69,43.51 35.89,88.93 48.23,135.89l-501.09 501.09 -92.06 -92.05zm395.59 395.59l-96.44 -96.44 302.81 -302.81c-32,148.21 -102.42,285.32 -206.37,399.25zm223.08 -531.05l-377.06 377.06 -92.01 -92 463.01 -463.01c5.91,40.8 9,82.5 9,124.91 0,17.35 -0.56,34.61 -1.56,51.79 -0.47,0.42 -0.94,0.81 -1.38,1.25z"/>
    </g>
   </g>
   <g>
    <g>
     <path class="fil0" d="M1620.11 1650.12l-630.38 -630.38 0 -891.48c0,-22.47 -18.22,-40.69 -40.69,-40.69 -253.5,0 -491.82,98.71 -671.07,277.96 -179.25,179.25 -277.97,417.57 -277.97,671.07 0,253.5 98.72,491.82 277.96,671.07 179.26,179.25 417.58,277.97 671.08,277.97 253.49,0 491.81,-98.72 671.07,-277.97 15.89,-15.89 15.89,-41.65 0,-57.55zm-671.07 254.14c-478.43,0 -867.66,-389.23 -867.66,-867.66 0,-464.79 367.35,-845.4 826.97,-866.71l0 866.71c0,3.16 0.41,6.27 1.12,9.3 -0.02,0 -0.03,0 -0.04,0l198.12 843.98c-51.76,9.5 -104.76,14.38 -158.51,14.38zm237.77 -32.81l-165.51 -705.04 511.83 511.83c-100.24,91.45 -218.42,156.98 -346.32,193.21z"/>
    </g>
   </g>
   <g>
    <g>
     <path class="fil0" d="M1329.89 831.2c-7.57,-7.56 -18.07,-11.92 -28.77,-11.92 -10.7,0 -21.2,4.35 -28.77,11.92 -7.56,7.57 -11.92,18.07 -11.92,28.77 0,10.7 4.36,21.2 11.92,28.76 7.57,7.57 18.07,11.93 28.77,11.93 10.7,0 21.2,-4.36 28.77,-11.93 7.57,-7.56 11.92,-18.06 11.92,-28.76 0,-10.7 -4.35,-21.2 -11.92,-28.77z"/>
    </g>
   </g>
   <g>
    <g>
     <path class="fil0" d="M234.15 994.6c-0.06,0 -0.13,0 -0.19,0 -22.38,0 -40.58,18.09 -40.68,40.5l0 1.5c0,22.47 18.21,40.69 40.69,40.69 22.47,0 40.69,-18.22 40.69,-40.69l0 -1.12c0.09,-22.48 -18.04,-40.78 -40.51,-40.88z"/>
    </g>
   </g>
   <g>
    <g>
     <path class="fil0" d="M630.92 394.71c-11.13,-19.53 -35.97,-26.34 -55.5,-15.21 -178.74,101.84 -309.79,274.23 -359.55,472.98 -5.46,21.8 7.79,43.9 29.59,49.36 3.31,0.83 6.64,1.23 9.91,1.23 18.22,0 34.81,-12.34 39.44,-30.82 44.39,-177.31 161.35,-331.14 320.9,-422.04 19.52,-11.12 26.33,-35.97 15.21,-55.5z"/>
    </g>
   </g>
   <g>
   </g>
   <g>
   </g>
   <g>
   </g>
   <g>
   </g>
   <g>
   </g>
   <g>
   </g>
   <g>
   </g>
   <g>
   </g>
   <g>
   </g>
   <g>
   </g>
   <g>
   </g>
   <g>
   </g>
   <g>
   </g>
   <g>
   </g>
   <g>
   </g>
  </g>
 </g>
</svg>
