<?xml version="1.0" encoding="UTF-8"?>
<!DOCTYPE svg PUBLIC "-//W3C//DTD SVG 1.1//EN" "http://www.w3.org/Graphics/SVG/1.1/DTD/svg11.dtd">
<!-- Creator: CorelDRAW 2019 (64-Bit) -->
<svg xmlns="http://www.w3.org/2000/svg" xml:space="preserve" width="3.18898in" height="1.9685in" version="1.1" style="shape-rendering:geometricPrecision; text-rendering:geometricPrecision; image-rendering:optimizeQuality; fill-rule:evenodd; clip-rule:evenodd"
viewBox="0 0 537.72 331.93"
 xmlns:xlink="http://www.w3.org/1999/xlink"
 xmlns:xodm="http://www.corel.com/coreldraw/odm/2003">
 <defs>
  <style type="text/css">
   <![CDATA[
    .fil0 {fill:#014EB4}
    .fil1 {fill:#155CBA}
    .fil2 {fill:white}
    .fil3 {fill:white;fill-rule:nonzero}
   ]]>
  </style>
 </defs>
 <g id="Layer_x0020_1">
  <metadata id="CorelCorpID_0Corel-Layer"/>
  <rect class="fil0" width="537.72" height="331.93"/>
  <polygon class="fil1" points="-0,0 537.72,0 537.72,331.93 "/>
  <g id="_2079444777440">
   <path class="fil2" d="M258.42 112.01c24.56,-9.25 48.26,-13.84 68.6,-14.13 1.94,0.13 3.86,0.3 5.77,0.51 15.46,1.69 37.4,7.22 44.66,22.8 0.63,1.35 1.13,2.75 1.51,4.19 2.17,8.35 -0.28,16.91 -4.25,24.32l-5.9 0c-3.12,0 -6.43,0.62 -8.76,2.87 -0.59,0.57 -1.11,1.21 -1.56,1.89l0.13 -1.97c0.05,-0.75 -0.19,-1.41 -0.7,-1.96 -0.51,-0.55 -1.16,-0.83 -1.91,-0.83l-22.08 0c-3.42,0 -6.78,0.84 -9.28,3.29 -0.96,0.94 -1.76,1.98 -2.42,3.11 -0.11,-1.03 -0.38,-2.01 -0.87,-2.9 -1.6,-2.92 -5.24,-3.49 -8.26,-3.49l-22.14 0c-3.12,0 -6.43,0.62 -8.76,2.87 -1.55,1.5 -2.59,3.48 -3.31,5.54 -0.11,-1.43 -0.45,-2.84 -1.14,-4.13 -1.75,-3.3 -5.31,-4.28 -8.82,-4.28l-11.55 0c-0.92,0 -1.8,0.17 -2.61,0.52 -0.45,-0.34 -0.98,-0.52 -1.58,-0.52l-14.6 0c-0.83,0 -1.55,0.35 -2.06,1 -0.51,0.65 -0.68,1.43 -0.49,2.24 0.04,0.17 0.09,0.33 0.15,0.49 0.01,0.03 0.02,0.06 0.03,0.09 0.16,0.55 0.24,1.14 0.28,1.71 0.04,0.67 -0.15,1.7 -0.33,2.53 0.05,-1.61 -0.18,-3.21 -0.93,-4.57 -1.6,-2.92 -5.24,-3.49 -8.26,-3.49l-21.6 0c-2.22,0 -4.54,0.32 -6.53,1.31 -0.47,-0.82 -1.31,-1.31 -2.27,-1.31l-4.24 0c17.56,-14.65 40.35,-27.99 66.11,-37.68zm130.76 19.14c0.93,5.87 0.28,12.11 -1.75,18.54l-6.47 0c3.49,-5.68 6.52,-12 8.22,-18.54zm-10.65 36.51c-1.28,1.92 -2.66,3.83 -4.14,5.75l-1.88 0 2.91 -12.34c0.02,-0.09 0.06,-0.23 0.1,-0.36l4.65 0 -1.64 6.95zm-13.76 16.77c-18.5,18.96 -46.07,36.77 -78.27,48.89 -41.94,15.79 -81.39,18.04 -105.86,8.37 4.38,0.61 8.69,0.93 12.73,1.04 14.7,0.42 29.76,-1.52 44.1,-4.67 17,-3.74 33.7,-9.35 49.66,-16.29 19.78,-8.59 39.03,-19.47 56.18,-32.59 1.13,-0.87 1.36,-2.48 0.53,-3.63 -0.84,-1.15 -2.44,-1.42 -3.61,-0.61 -18.85,13.05 -40.68,22.97 -62.5,29.85 -25.63,8.07 -55.49,13.19 -82.38,10.25 -12.93,-1.42 -30.4,-5.52 -40.01,-15.94 -0.07,-7.82 2.39,-16.18 6.98,-24.67l14.92 0c0.93,0 1.73,-0.44 2.22,-1.23l12.47 -19.81 -2.1 8.9c-0.64,2.72 -1.04,6.06 0.37,8.62 1.61,2.91 5.19,3.52 8.22,3.52l28.25 0c1.1,0 2.05,-0.64 2.45,-1.67l0.04 -0.1c0.04,0.12 0.09,0.23 0.15,0.35 0.46,0.9 1.33,1.42 2.33,1.42l17.24 0c0.83,0 1.55,-0.35 2.06,-1 0.51,-0.65 0.68,-1.43 0.49,-2.24 -0.04,-0.17 -0.09,-0.33 -0.15,-0.49 -0.01,-0.03 -0.02,-0.06 -0.02,-0.09 -0.16,-0.55 -0.24,-1.14 -0.28,-1.71 -0.06,-0.88 0.3,-2.41 0.5,-3.27l3.42 -14.49c0.02,-0.1 0.07,-0.27 0.12,-0.42 0.09,-0.01 0.18,-0.01 0.24,-0.01l4.17 0 -3.23 13.72c-0.24,1.03 -0.6,2.47 -1.1,3.41 -0.36,0.67 -0.77,1.33 -1.23,1.93 -0.02,0.03 -0.04,0.05 -0.06,0.08 -0.01,0.01 -0.01,0.02 -0.02,0.03 -0.11,0.13 -0.22,0.27 -0.32,0.41 -0.58,0.82 -0.66,1.83 -0.2,2.72 0.46,0.9 1.33,1.42 2.33,1.42l17.36 0c0.83,0 1.55,-0.35 2.06,-1 0.51,-0.65 0.68,-1.43 0.49,-2.24 -0.04,-0.17 -0.09,-0.33 -0.15,-0.49 -0.01,-0.03 -0.01,-0.06 -0.02,-0.09 -0.17,-0.55 -0.24,-1.14 -0.28,-1.71 -0,-0.04 -0.01,-0.09 -0.01,-0.13 0.15,0.75 0.39,1.47 0.76,2.14 1.61,2.91 5.19,3.52 8.22,3.52l22.14 0c3.15,0 6.5,-0.63 8.82,-2.92 1.05,-1.04 1.87,-2.31 2.51,-3.67 0.18,0.91 0.49,1.8 0.95,2.65 1.7,3.13 5.26,3.94 8.55,3.94l21.96 0c1.11,0 2.06,-0.66 2.46,-1.7l1.49 -3.95c0.15,0.75 0.39,1.47 0.76,2.13 1.61,2.91 5.19,3.52 8.22,3.52l2.92 0zm-187.85 -20.11c1.86,-2.04 3.84,-4.07 5.91,-6.09l-5.47 8.7 -0.44 -2.61zm178.7 -2.04c-0.84,0.04 -1.64,-0.33 -2.17,-1.02 -0.17,-0.11 -0.54,-0.21 -0.7,-0.25 -1.12,-0.27 -2.47,-0.31 -3.62,-0.31l-8.08 0c-0.21,0 -0.82,0.03 -1,0.16 -0.16,0.14 -0.34,0.66 -0.4,0.89l-2.75 11.66 6.8 0c1.23,0 2.93,0 4.13,-0.28 0.75,-0.17 1.5,-0.4 2.22,-0.69 0.07,-0.03 0.15,-0.07 0.22,-0.1 0.09,-0.04 0.18,-0.08 0.27,-0.13 0.9,-0.42 1.9,-0.31 2.68,0.28 0.01,-0.07 0.03,-0.13 0.05,-0.19l2.36 -10.01zm-122.84 9.79c-0.41,0.43 -0.97,0.72 -1.59,0.79 0.01,0.01 0.02,0.02 0.03,0.03 0.78,0.75 1.01,1.83 0.62,2.84l-1.05 2.71c0.12,-0.2 0.23,-0.4 0.34,-0.61 0.5,-0.93 0.86,-2.38 1.1,-3.41l0.55 -2.35zm-23.59 0.81l-0.12 0.53 13.62 0c0.65,0 1.31,-0.01 1.97,-0.06 0.48,-0.03 0.95,-0.11 1.41,-0.23 0.05,-0.01 0.1,-0.02 0.15,-0.04 0.26,-0.05 0.52,-0.12 0.77,-0.2l-17.8 0zm2.6 -11.02l4.48 0 0.27 -1.15 -4.47 0c-0.04,0.13 -0.08,0.27 -0.1,0.36l-0.19 0.79zm82.86 11.55l4.59 0c0.02,0 0.04,0 0.06,-0 0.04,-0.13 0.08,-0.27 0.1,-0.36l2.91 -12.34 -4.65 0c-0.04,0.13 -0.08,0.27 -0.1,0.36l-2.91 12.34z"/>
   <path class="fil3" d="M175.91 174.15l11.49 -18.26c0.19,-0.29 0.35,-0.6 0.48,-0.91 0.13,-0.31 0.24,-0.62 0.3,-0.91 0.07,-0.29 0.11,-0.59 0.12,-0.88 0.01,-0.29 -0.01,-0.59 -0.06,-0.88l8.32 0c-0.7,0.75 -1.25,1.38 -1.67,1.88 -0.42,0.5 -0.78,0.98 -1.09,1.44 -0.11,0.13 -0.21,0.25 -0.3,0.38 -0.09,0.13 -0.17,0.25 -0.24,0.38 -0.23,0.29 -0.44,0.6 -0.63,0.91 -0.19,0.31 -0.42,0.68 -0.68,1.1l-14.73 23.4 -15.02 0 -4.82 -26.29c-0.04,-0.34 -0.1,-0.68 -0.17,-1.04 -0.08,-0.36 -0.19,-0.72 -0.34,-1.1 -0.08,-0.17 -0.17,-0.35 -0.26,-0.53 -0.1,-0.19 -0.2,-0.37 -0.32,-0.53l17 0c-0.1,0.25 -0.19,0.48 -0.28,0.69 -0.09,0.21 -0.15,0.4 -0.19,0.56 -0.08,0.33 -0.1,0.74 -0.08,1.22 0.03,0.48 0.1,1.06 0.22,1.73l2.97 17.63zm54.96 -3.89l-23.76 0 -0.65 2.76c-0.21,1.05 -0.12,1.81 0.27,2.29 0.39,0.48 1.14,0.72 2.25,0.72l13.7 0c0.8,0 1.51,-0.02 2.14,-0.06 0.63,-0.04 1.26,-0.15 1.9,-0.31 0.42,-0.08 0.84,-0.2 1.28,-0.35 0.43,-0.15 0.89,-0.32 1.38,-0.53l-2.73 7.03 -28.25 0c-3.15,0 -5.13,-0.72 -5.92,-2.16 -0.8,-1.44 -0.84,-3.69 -0.12,-6.75l2.75 -11.67c0.73,-3.1 1.83,-5.35 3.3,-6.78 1.47,-1.42 3.78,-2.13 6.94,-2.13l21.6 0c3.19,0 5.18,0.71 5.96,2.13 0.78,1.42 0.81,3.68 0.08,6.78l-2.13 9.04zm-22.4 -5.77l9.87 0 0.95 -4.02c0.2,-0.84 0.2,-1.44 0.01,-1.82 -0.19,-0.38 -0.68,-0.56 -1.48,-0.56l-5.81 0c-0.76,0 -1.33,0.19 -1.72,0.56 -0.39,0.38 -0.68,0.98 -0.88,1.82l-0.95 4.02zm30.1 -12.17l14.6 0 -0.31 3.07 0.12 0c0.01,-0.04 0.03,-0.07 0.05,-0.09 0.02,-0.02 0.04,-0.05 0.05,-0.09 0.49,-0.71 1.07,-1.37 1.75,-1.98 0.68,-0.61 1.52,-0.91 2.52,-0.91l11.55 0c3.31,0 5.48,0.96 6.5,2.89 1.02,1.92 1.14,4.54 0.37,7.84l-2.82 11.98c-0.43,1.84 -0.62,3.19 -0.56,4.05 0.06,0.86 0.19,1.62 0.39,2.29 0.02,0.08 0.04,0.16 0.07,0.22 0.02,0.06 0.05,0.14 0.07,0.22l-17.36 0c0.06,-0.08 0.12,-0.16 0.17,-0.22 0.06,-0.06 0.11,-0.14 0.17,-0.22 0.52,-0.67 1.01,-1.43 1.47,-2.29 0.46,-0.86 0.91,-2.21 1.34,-4.05l3.42 -14.49c0.22,-0.92 0.2,-1.56 -0.06,-1.91 -0.26,-0.36 -0.82,-0.53 -1.7,-0.53l-5.15 0c-0.88,0 -1.53,0.18 -1.95,0.53 -0.42,0.36 -0.74,0.99 -0.96,1.91l-3.42 14.49c-0.43,1.84 -0.62,3.19 -0.56,4.05 0.06,0.86 0.19,1.62 0.39,2.29 0.02,0.08 0.04,0.16 0.07,0.22 0.03,0.06 0.05,0.14 0.07,0.22l-17.24 0c0.06,-0.08 0.12,-0.16 0.17,-0.22 0.05,-0.06 0.11,-0.14 0.17,-0.22 0.52,-0.67 1.01,-1.43 1.47,-2.29 0.46,-0.86 0.91,-2.21 1.34,-4.05l3.76 -15.94c0.43,-1.84 0.62,-3.19 0.56,-4.05 -0.06,-0.86 -0.19,-1.62 -0.39,-2.29 -0.02,-0.08 -0.04,-0.16 -0.07,-0.22 -0.03,-0.06 -0.05,-0.14 -0.07,-0.22zm80.55 8.91l-2.75 11.67c-0.72,3.05 -1.81,5.3 -3.27,6.75 -1.46,1.44 -3.78,2.16 -6.97,2.16l-22.14 0c-3.15,0 -5.13,-0.72 -5.92,-2.16 -0.8,-1.44 -0.84,-3.69 -0.12,-6.75l2.75 -11.67c0.73,-3.1 1.83,-5.35 3.3,-6.78 1.47,-1.42 3.78,-2.13 6.94,-2.13l22.14 0c3.19,0 5.18,0.71 5.96,2.13 0.78,1.42 0.81,3.68 0.08,6.78zm-24.12 -0.75l-3.11 13.18c-0.2,0.84 -0.19,1.44 0.02,1.82 0.21,0.38 0.7,0.56 1.45,0.56l5.87 0c0.84,0 1.45,-0.19 1.84,-0.56 0.39,-0.38 0.68,-0.98 0.88,-1.82l3.11 -13.18c0.2,-0.84 0.19,-1.44 -0.02,-1.82 -0.21,-0.38 -0.73,-0.56 -1.57,-0.56l-5.87 0c-0.76,0 -1.33,0.19 -1.72,0.56 -0.39,0.38 -0.68,0.98 -0.88,1.82zm42.1 0.63l-2.81 11.92c-0.21,1.05 -0.12,1.81 0.27,2.29 0.39,0.48 1.14,0.72 2.25,0.72l6.88 0c2.15,0 3.73,-0.11 4.72,-0.34 0.99,-0.23 1.89,-0.51 2.68,-0.85 0.09,-0.04 0.18,-0.08 0.27,-0.13 0.09,-0.04 0.18,-0.08 0.27,-0.13l-2.72 7.22 -21.96 0c-3.23,0 -5.31,-0.86 -6.25,-2.57 -0.93,-1.72 -1.08,-3.91 -0.45,-6.59l2.63 -11.17c0.64,-2.72 1.83,-4.93 3.57,-6.62 1.74,-1.69 4.22,-2.54 7.45,-2.54l22.08 0 -0.47 7.34c-0.39,-0.54 -1.12,-0.94 -2.17,-1.19 -1.06,-0.25 -2.46,-0.38 -4.22,-0.38l-8.08 0c-1.12,0 -1.98,0.23 -2.59,0.69 -0.61,0.46 -1.06,1.23 -1.36,2.32zm59.88 0.13l-2.75 11.67c-0.72,3.05 -1.81,5.3 -3.27,6.75 -1.46,1.44 -3.78,2.16 -6.97,2.16l-22.14 0c-3.15,0 -5.13,-0.72 -5.92,-2.16 -0.8,-1.44 -0.84,-3.69 -0.12,-6.75l2.75 -11.67c0.73,-3.1 1.83,-5.35 3.3,-6.78 1.47,-1.42 3.78,-2.13 6.94,-2.13l22.14 0c3.19,0 5.18,0.71 5.96,2.13 0.78,1.42 0.81,3.68 0.08,6.78zm-24.12 -0.75l-3.11 13.18c-0.2,0.84 -0.19,1.44 0.02,1.82 0.21,0.38 0.69,0.56 1.45,0.56l5.87 0c0.84,0 1.45,-0.19 1.84,-0.56 0.39,-0.38 0.68,-0.98 0.88,-1.82l3.11 -13.18c0.2,-0.84 0.19,-1.44 -0.02,-1.82 -0.21,-0.38 -0.73,-0.56 -1.57,-0.56l-5.87 0c-0.76,0 -1.33,0.19 -1.72,0.56 -0.39,0.38 -0.68,0.98 -0.88,1.82z"/>
   <path class="fil2" d="M242.14 105.25c67.32,-29.25 131.76,-27.42 143.89,4.09 4.65,12.07 0.93,26.76 -9.19,41.92 5.02,-9.22 6.81,-18.28 4.66,-26.55 -7.97,-30.69 -67.02,-39.01 -131.87,-18.59 -17.16,5.41 -33.02,12.29 -46.9,20.05 11.91,-7.63 25.15,-14.73 39.42,-20.93zm99.56 81.85c-15.62,11.95 -34.51,23.09 -55.63,32.27 -67.32,29.25 -131.76,27.42 -143.89,-4.09 -4.21,-10.93 -1.57,-23.99 6.48,-37.61 -2.96,7.3 -3.76,14.42 -2.04,21.04 7.97,30.69 67.02,39.02 131.87,18.59 24.33,-7.66 46.02,-18.29 63.21,-30.19z"/>
  </g>
 </g>
</svg>
